<?xml version="1.0" encoding="iso-8859-1"?>
<!-- Generator: Adobe Illustrator 19.0.0, SVG Export Plug-In . SVG Version: 6.00 Build 0)  -->
<svg xmlns="http://www.w3.org/2000/svg" xmlns:xlink="http://www.w3.org/1999/xlink" version="1.1" id="Capa_1" x="0px" y="0px" viewBox="0 0 512.001 512.001" style="enable-background:new 0 0 512.001 512.001;" xml:space="preserve" width="512px" height="512px">
<g>
	<g>
		<path d="M507.55,131.198c-5.935-5.935-15.551-5.935-21.486,0l-10.745,10.745l-21.497-21.49l8.193-8.193l14.434-4.819    c32.138-10.702,41.767-51.523,17.821-75.468l-16.426-16.426C453.842-8.454,413.074,1.292,402.36,33.368l-4.81,14.44    l-40.403,40.403c-24.992,24.906-51.517,42.086-88.986,49.59c-4.517,0.904-8.803,2.457-13.215,3.665l18.513,94.892l94.891,18.513    c1.207-4.412,2.761-8.699,3.665-13.215l0.015-0.074c7.427-37.078,24.412-63.662,49.575-88.911l10.73-10.73l21.497,21.49    l-10.756,10.756c-5.935,5.935-5.935,15.551,0,21.486c5.935,5.935,15.551,5.935,21.486,0l42.987-42.987    C513.485,146.749,513.485,137.133,507.55,131.198z M355.797,194.351l-40.33-40.33c18.993-8.467,36.727-19.561,52.245-33.714    l21.798,21.798C375.36,157.632,364.265,175.362,355.797,194.351z M428.223,51.887l2.967-8.903    c3.631-10.831,17.259-13.857,25.166-5.95l16.426,16.426c7.954,7.954,4.81,21.564-5.95,25.151l-8.903,2.982L428.223,51.887z" fill="#FFFFFF"/>
	</g>
</g>
<g>
	<g>
		<path d="M257.656,264.328c-6.187-1.158-11.01-5.98-12.168-12.168l-19.526-100.268c-21.375,9.664-41.138,22.673-57.961,39.506    l-15.009,15.009l53.723,53.723c17.761,17.791,17.761,46.697,0,64.458l-64.472,64.472c-17.777,17.777-46.682,17.777-64.458,0    L24.05,335.335l-10.753,10.753c-17.732,17.777-17.732,46.682,0.015,64.458l85.958,85.974    c17.777,17.747,46.682,17.732,64.458-0.015l154.69-154.69c16.833-16.823,29.842-36.586,39.506-57.961L257.656,264.328z" fill="#FFFFFF"/>
	</g>
</g>
<g>
	<g>
		<path d="M185.214,281.616l-53.712-53.723l-85.966,85.958l53.735,53.723c5.935,5.906,15.55,5.935,21.486,0l64.472-64.472    C191.15,297.181,191.15,287.537,185.214,281.616z" fill="#FFFFFF"/>
	</g>
</g>
<g>
</g>
<g>
</g>
<g>
</g>
<g>
</g>
<g>
</g>
<g>
</g>
<g>
</g>
<g>
</g>
<g>
</g>
<g>
</g>
<g>
</g>
<g>
</g>
<g>
</g>
<g>
</g>
<g>
</g>
</svg>
