<?xml version="1.0" encoding="iso-8859-1"?>
<!-- Generator: Adobe Illustrator 19.0.0, SVG Export Plug-In . SVG Version: 6.00 Build 0)  -->
<svg xmlns="http://www.w3.org/2000/svg" xmlns:xlink="http://www.w3.org/1999/xlink" version="1.1" id="Capa_1" x="0px" y="0px" viewBox="0 0 512 512" style="enable-background:new 0 0 512 512;" xml:space="preserve" width="512px" height="512px">
<g>
	<g>
		<path d="M166.532,288.449c-23.413-24.949-36.307-57.54-36.307-91.769c0-38.467,16.282-73.198,42.31-97.68    c-17.664-10.624-37.855-16.236-58.62-16.236C51.103,82.764,0,133.866,0,196.68c0,29.07,10.95,56.748,30.831,77.934    l141.731,151.028c0.018,0.02,0.037,0.039,0.055,0.058c2.139,2.28,5.037,3.536,8.162,3.536c3.124,0,6.023-1.256,8.162-3.535    l53.197-56.687L166.532,288.449z" fill="rgba(255, 255, 255, 0.4)"/>
	</g>
</g>
<g>
	<g>
		<path d="M398.084,82.764c-21.864,0-43.1,6.207-61.412,17.952c-3.54,2.267-7.979,2.059-11.244-0.218    c-18.232-11.603-39.341-17.734-61.07-17.734c-62.813,0-113.916,51.102-113.916,113.916c0,29.07,10.95,56.747,30.831,77.934    l141.736,151.034c0.017,0.017,0.034,0.035,0.05,0.052c2.139,2.28,5.037,3.536,8.162,3.536c3.124,0,6.023-1.256,8.162-3.535    l141.784-151.086C501.05,253.428,512,225.751,512,196.68C512,133.866,460.897,82.764,398.084,82.764z" fill="#ffffff"/>
	</g>
</g>
<g>
</g>
<g>
</g>
<g>
</g>
<g>
</g>
<g>
</g>
<g>
</g>
<g>
</g>
<g>
</g>
<g>
</g>
<g>
</g>
<g>
</g>
<g>
</g>
<g>
</g>
<g>
</g>
<g>
</g>
</svg>
