<?xml version="1.0" encoding="iso-8859-1"?>
<!-- Generator: Adobe Illustrator 16.0.0, SVG Export Plug-In . SVG Version: 6.00 Build 0)  -->
<!DOCTYPE svg PUBLIC "-//W3C//DTD SVG 1.1//EN" "http://www.w3.org/Graphics/SVG/1.1/DTD/svg11.dtd">
<svg xmlns="http://www.w3.org/2000/svg" xmlns:xlink="http://www.w3.org/1999/xlink" version="1.1" id="Capa_1" x="0px" y="0px" width="512px" height="512px" viewBox="0 0 509.42 509.42" style="enable-background:new 0 0 509.42 509.42;" xml:space="preserve">
<g>
	<g>
		<path d="M384.59,322.053l-0.411-0.086c0,0-45.27-68.602-103.868-33.135c-58.608,35.469-36.72,151.174,66.622,219.078l1.577,1.51    c121.53-22.863,185.131-122.639,144.71-177.938C452.799,276.182,384.59,322.053,384.59,322.053z" fill="#FFFFFF"/>
		<path d="M173.268,232.06c-55.768-16.467-78.125,49.61-78.125,49.61l-0.315,0.154c0,0-65.886-22.941-87.134,31.182    c-21.248,54.125,53.139,120.9,157.839,113.441l1.836,0.209C237.557,348.598,229.037,248.527,173.268,232.06z" fill="#FFFFFF"/>
		<path d="M267.21,232.022c70.6-16.792,105.092-77.055,79.856-108.343s-63.936-2.496-63.936-2.496l-0.238-0.039    c0,0-28.449-38.948-61.812-16.524c-33.363,22.424-17.308,89.639,45.164,126.56L267.21,232.022z" fill="#FFFFFF"/>
		<path d="M76.572,162.196l0.21,0.794c43.423,16.524,83.385-2.964,81.281-28.611c-2.104-25.647-32.953-24.337-32.953-24.337    l-0.115-0.105c0,0-1.042-30.868-26.775-31.001C72.489,78.802,56.788,120.16,76.572,162.196z" fill="#FFFFFF"/>
		<path d="M205.953,66.38l0.622,0.076c24.001-25.943,21.611-59.67,2.917-65.484c-18.695-5.814-26.536,16.333-26.536,16.333    l-0.105,0.048c0,0-22.07-8.042-29.481,10.079C145.948,45.553,170.667,68.388,205.953,66.38z" fill="#FFFFFF"/>
	</g>
</g>
<g>
</g>
<g>
</g>
<g>
</g>
<g>
</g>
<g>
</g>
<g>
</g>
<g>
</g>
<g>
</g>
<g>
</g>
<g>
</g>
<g>
</g>
<g>
</g>
<g>
</g>
<g>
</g>
<g>
</g>
</svg>
