<?xml version="1.0" encoding="iso-8859-1"?>
<!-- Generator: Adobe Illustrator 19.0.0, SVG Export Plug-In . SVG Version: 6.00 Build 0)  -->
<svg xmlns="http://www.w3.org/2000/svg" xmlns:xlink="http://www.w3.org/1999/xlink" version="1.1" id="Layer_1" x="0px" y="0px" viewBox="0 0 512.001 512.001" style="enable-background:new 0 0 512.001 512.001;" xml:space="preserve" width="512px" height="512px">
<g>
	<g>
		<path d="M265.101,371.129l-41.618,105.085c-4.969,12.547,1.174,26.746,13.721,31.716c12.563,4.973,26.752-1.189,31.716-13.721    l22.452-56.692L265.101,371.129z" fill="#FFFFFF"/>
	</g>
</g>
<g>
	<g>
		<circle cx="379.394" cy="124.284" r="44.939" fill="#FFFFFF"/>
	</g>
</g>
<g>
	<g>
		<path d="M289.144,2.348c-9.794,0-18.202,5.881-21.922,14.297C263.502,8.23,255.094,2.348,245.3,2.348    c-13.239,0-23.971,10.732-23.971,23.971c0.001,25.983,33.248,52.146,43.146,59.358c1.639,1.195,3.859,1.193,5.498-0.001    c9.901-7.216,43.142-33.377,43.142-59.357C313.115,13.08,302.383,2.348,289.144,2.348z" fill="#FFFFFF"/>
	</g>
</g>
<g>
	<g>
		<path d="M161.841,79.859c-18.592-2.84-36.253,6.153-45.354,21.35c-4.826-1.662-9.698-2.535-14.815-2.258    c-4.499,0.183-9.951,1.669-14.518,4.745c-4.175,2.835-7.815,7.091-9.366,10.183c-2.986,5.953-2.865,8.802-3.228,26.442    c-0.133,6.904-0.382,13.642-1.107,19.744c-0.827,7.145-2.893,19.236-9.811,21.114c-1.425,0.369-2.732,0.241-3.979,0.144    c-1.574-0.12-3.078,0.854-3.568,2.425c-0.568,1.827,0.451,3.768,2.277,4.337c1.247,0.389,3.228,1.061,5.96,1.051    c12.407-0.072,19.283-14.013,23.343-25.679c2.312-6.637,4.131-13.729,5.799-20.667c0.269-1.113,1.918-10.778,5.659-16.181    c6.651-6.028,10.936,4.563,11.578,5.009c3.084,18.674,17.832,34.085,37.557,37.098c24.537,3.748,47.467-13.105,51.214-37.642    C203.231,106.536,186.378,83.606,161.841,79.859z" fill="#FFFFFF"/>
	</g>
</g>
<g>
	<g>
		<path d="M252.919,331.276c-4.384-6.429-11.825-10.669-20.259-10.669l-75.175,0.22l-0.517-0.081    c-9.785-1.556-17.504-8.251-20.856-16.863c-7.964-20.625-14.406-41.366-18.985-62.883l31.67,56.764    c3.597,6.447,10.4,10.441,17.782,10.441h81.984c2.827,0,5.517-0.577,7.964-1.618c-3.464-5.413-5.48-11.841-5.48-18.745    c0-6.902,2.016-13.331,5.48-18.743c-2.446-1.041-5.137-1.618-7.964-1.618h-70.029l-30.803-55.209    c10.384,10.071,20.69,21.693,29.937,33.297l0.411-26.106c0.299-18.941-14.916-34.5-33.85-34.635l-14.574-0.105    c-28.207-0.202-51.166,22.671-51.089,50.864l0.271,98.857c0.025,9.071,3.664,17.758,10.11,24.14    c4.547,4.502,10.23,7.587,16.367,8.994H62.457l-29.06-147.835c-1.796-9.134-10.655-15.08-19.79-13.288    c-9.134,1.796-15.083,10.656-13.288,19.79l31.734,161.439c1.554,7.904,8.483,13.604,16.539,13.604h2.902l-35.86,92.981    c-2.234,5.79,0.65,12.295,6.441,14.527c5.793,2.234,12.295-0.653,14.528-6.441l38.979-101.068h64.008l22.016,57.085l-7.063,17.849    c-4.965,12.549,1.181,26.746,13.73,31.711c12.542,4.964,26.744-1.178,31.711-13.73l55.466-140.169    C258.434,346.497,257.486,337.972,252.919,331.276z M173.805,427.546l-10.127-26.259h2.902c9.309,0,16.855-7.547,16.855-16.855    c0-6.375-3.542-11.922-8.764-14.786l22.07-0.065L173.805,427.546z" fill="#FFFFFF"/>
	</g>
</g>
<g>
	<g>
		<path d="M498.392,206.453c-9.135-1.791-17.995,4.154-19.79,13.288l-22.999,117c-0.02-0.101-0.046-0.202-0.067-0.303    c0.1-1.628,0.051,4.912,0.338-99.559c0.038-13.883-5.476-27.204-15.314-36.999c-9.838-9.795-23.184-15.249-37.067-15.15    l-13.279,0.095c-9.094,0.065-17.785,3.76-24.142,10.264c-6.356,6.503-9.852,15.277-9.709,24.371l0.457,29.009l27.925-32.677    l-28.837,51.685H285.88c-11.246,0-20.363,9.117-20.363,20.363s9.117,20.363,20.363,20.363h81.986    c7.382,0,14.185-3.996,17.782-10.441l28.375-50.857l-15.334,57.164c-3.008,11.214-13.15,18.609-24.232,18.612    c-8.701-0.008,3.432-0.007-76.639-0.006c-6.507,0-12.627,3.224-16.293,8.6c-4.566,6.696-5.515,15.22-2.532,22.757l55.468,140.17    c4.965,12.547,19.159,18.696,31.711,13.729c12.548-4.966,18.694-19.164,13.729-31.711l-8.958-22.635    c2.151-5.577,18.064-46.837,20.169-52.297h26.6l38.978,101.068c2.235,5.796,8.743,8.672,14.528,6.441    c5.79-2.234,8.673-8.737,6.441-14.527l-35.86-92.981h21.607c8.055,0,14.985-5.7,16.539-13.604l31.735-161.441    C513.477,217.11,507.527,208.249,498.392,206.453z M358.747,422.758l-8.496-21.471h16.777L358.747,422.758z M449.543,367.577    h-20.412c12.121-2.781,21.474-11.794,24.981-23.243L449.543,367.577z" fill="#FFFFFF"/>
	</g>
</g>
<g>
</g>
<g>
</g>
<g>
</g>
<g>
</g>
<g>
</g>
<g>
</g>
<g>
</g>
<g>
</g>
<g>
</g>
<g>
</g>
<g>
</g>
<g>
</g>
<g>
</g>
<g>
</g>
<g>
</g>
</svg>
